<?xml version="1.0" standalone="no"?>
<!DOCTYPE svg PUBLIC "-//W3C//DTD SVG 20010904//EN"
 "http://www.w3.org/TR/2001/REC-SVG-20010904/DTD/svg10.dtd">
<svg version="1.0" xmlns="http://www.w3.org/2000/svg"
 width="1000.000000pt" height="1000.000000pt" viewBox="0 0 1000.000000 1000.000000"
 preserveAspectRatio="xMidYMid meet">

<g transform="translate(0.000000,1000.000000) scale(0.100000,-0.100000)"
fill="#000000" stroke="none">
<path d="M4785 9655 c-679 -176 -1295 -475 -1860 -900 -789 -595 -1471 -1426
-2058 -2510 -162 -299 -538 -1101 -563 -1200 -3 -12 2 -58 11 -101 10 -43 21
-99 26 -123 5 -24 31 -132 58 -240 249 -989 710 -2032 1384 -3131 189 -307
450 -704 479 -727 14 -11 235 -75 423 -122 375 -94 819 -177 1170 -220 94 -12
188 -24 210 -26 485 -62 1378 -71 1890 -21 528 53 854 102 1315 197 247 52
724 174 747 191 11 9 316 616 376 748 14 30 44 96 67 145 86 184 104 223 162
355 430 968 800 1964 1048 2823 l31 107 -42 133 c-241 775 -528 1398 -914
1987 -735 1122 -1724 1920 -3025 2440 -289 116 -669 240 -731 240 -19 -1 -110
-21 -204 -45z m414 -855 c106 -61 252 -148 324 -193 253 -160 636 -439 637
-464 0 -15 -97 -65 -245 -126 -197 -81 -377 -133 -540 -158 -44 -6 -86 -13
-93 -15 -9 -3 -12 -22 -10 -71 l3 -68 50 3 c75 5 309 58 421 96 145 49 315
120 436 183 l107 56 33 -25 c167 -127 758 -733 758 -776 0 -15 -106 -73 -310
-168 -293 -137 -612 -257 -840 -315 -47 -12 -89 -25 -94 -29 -8 -8 19 -27 101
-75 l31 -18 179 57 c264 86 499 182 770 316 132 66 246 120 252 120 36 0 393
-513 573 -825 78 -134 228 -417 228 -428 0 -10 -302 -207 -405 -264 -454 -253
-913 -418 -1498 -539 l-128 -26 -70 46 c-559 372 -1160 378 -1734 17 l-100
-63 -160 37 c-151 35 -281 68 -455 115 -409 112 -828 291 -1080 462 -110 73
-256 194 -273 223 -12 22 188 412 339 661 127 211 389 584 409 584 7 0 70 -34
141 -76 174 -102 416 -221 577 -285 165 -65 421 -149 453 -149 24 0 134 66
134 80 0 5 -24 14 -52 20 -210 50 -551 185 -783 312 -155 85 -365 219 -365
233 0 15 143 180 292 338 123 131 303 302 430 410 l56 48 92 -52 c228 -128
504 -230 763 -282 136 -27 160 -29 167 -17 11 16 14 140 4 140 -3 0 -52 9
-107 21 -140 28 -290 72 -427 126 -125 49 -350 161 -350 174 0 24 458 344 690
482 170 101 450 255 466 256 6 1 97 -49 203 -109z m16 -3554 c173 -37 325
-101 552 -232 18 -11 33 -24 33 -29 0 -6 -40 -28 -89 -49 -194 -81 -387 -242
-503 -416 -66 -99 -156 -276 -189 -373 -13 -37 -28 -66 -34 -64 -5 2 -19 37
-31 78 -77 264 -222 481 -416 625 -70 51 -220 129 -316 164 -34 13 -65 26 -67
31 -7 10 175 112 286 160 148 64 292 105 429 123 65 8 274 -3 345 -18z m-3475
-301 c814 -8 2010 -24 2125 -29 231 -10 435 -104 638 -295 151 -143 301 -372
362 -555 57 -170 55 -112 55 -1612 0 -761 -4 -1384 -8 -1384 -5 0 -239 210
-520 466 l-512 466 0 771 c0 452 -4 800 -10 840 -12 85 -38 135 -91 180 -87
75 -40 71 -941 77 l-808 5 -58 65 c-420 466 -891 1004 -886 1011 3 5 27 7 52
5 26 -3 297 -8 602 -11z m7160 3 c0 -11 -758 -871 -911 -1035 l-40 -43 -768 0
c-469 0 -789 -4 -822 -10 -132 -24 -214 -99 -237 -215 -9 -42 -12 -287 -12
-849 l0 -791 -511 -465 c-281 -256 -517 -465 -523 -465 -8 0 -12 359 -14 1349
-2 1467 -3 1455 53 1623 107 319 361 625 640 770 103 53 179 77 285 91 78 11
635 20 2245 38 308 4 562 8 564 10 11 10 51 3 51 -8z"/>
</g>
</svg>
